<svg width="640" height="384" viewBox="0 0 640 384" fill="none" xmlns="http://www.w3.org/2000/svg">
<path d="M622.34 89.2L343.4 3.5C328.2 -1.17 311.8 -1.17 296.61 3.5L17.66 89.2C-5.88 96.43 -5.88 127.56 17.66 134.79L66.29 149.73C55.62 162.92 49.06 179.01 48.41 196.63C38.78 202.15 32 212.11 32 224C32 234.78 37.68 243.85 45.86 249.65L20.33 364.53C18.11 374.52 25.71 384 35.94 384H92.05C102.29 384 109.89 374.52 107.67 364.53L82.14 249.65C90.32 243.85 96 234.78 96 224C96 212.43 89.53 202.75 80.34 197.13C81.1 182.11 88.78 168.83 101.03 160.41L296.6 220.5C305.66 223.28 323.04 226.75 343.39 220.5L622.34 134.8C645.89 127.56 645.89 96.44 622.34 89.2ZM352.79 251.09C324.26 259.85 299.95 255.01 287.2 251.09L142.18 206.54L128 320C128 355.35 213.96 384 320 384C426.04 384 512 355.35 512 320L497.82 206.53L352.79 251.09Z" fill="#A6B79D"/>
</svg>
